# xmcd CD database file generated by Grip 3.3.1
# 
# Track frame offsets:
#       150
#       7293
#       37518
#       74943
#       100618
#       149365
#       187345
#       206979
#       241612
#       271649
# 
# Disc length: 4097 seconds
# 
# Revision: 1
# Processed by: cddbd v1.5.2PL0 Copyright (c) Steve Scherf et al.
# Submitted via: Grip 3.3.1
# 
DISCID=900fff0a
DTITLE=Monteverdi, Claudio - L'incorporzaione di Poppea [CD3)
DYEAR=1900
DGENRE=Alternative
TTITLE0=Atto II
TTITLE1=Atto II, Sc.1 - Si muta la scena nella villa di Seneca
TTITLE2=Atto II, Sc.2 - Liberto, capitano de la guardia de'Pretoriani, e 
TTITLE2=Seneca - 
TTITLE3=Atto II, Sc.3 - Seneca e suoi Famigliari
TTITLE4=Atto II, Sc.4 - Si muta la scena nella città di Roma
TTITLE5=Atto II, Sc.5 - Nerone e Lucano, poeta
TTITLE6=Atto II, Sc.7 - Ottone solo
TTITLE7=Atto II, Sc.8 - Ottavia e Ottone
TTITLE8=Atto II, Sc.9 - Drusilla, Valletto, Nutrice
TTITLE9=Atto II, Sc.10 - Ottone, Drusilla
EXTD=
EXTT0=
EXTT1=
EXTT2=
EXTT3=
EXTT4=
EXTT5=
EXTT6=
EXTT7=
EXTT8=
EXTT9=
PLAYORDER=
